<svg width="21" height="20" viewBox="0 0 21 20" fill="none" xmlns="http://www.w3.org/2000/svg">
<path d="M19.0312 10H15.75V7.14286C15.75 5.56696 16.9271 4.28571 18.375 4.28571H18.7031C19.2486 4.28571 19.6875 3.80804 19.6875 3.21429V1.07143C19.6875 0.477679 19.2486 0 18.7031 0H18.375C14.7492 0 11.8125 3.19643 11.8125 7.14286V17.8571C11.8125 19.0402 12.6943 20 13.7812 20H19.0312C20.1182 20 21 19.0402 21 17.8571V12.1429C21 10.9598 20.1182 10 19.0312 10ZM7.21875 10H3.9375V7.14286C3.9375 5.56696 5.11465 4.28571 6.5625 4.28571H6.89062C7.43613 4.28571 7.875 3.80804 7.875 3.21429V1.07143C7.875 0.477679 7.43613 0 6.89062 0H6.5625C2.93672 0 0 3.19643 0 7.14286V17.8571C0 19.0402 0.881836 20 1.96875 20H7.21875C8.30566 20 9.1875 19.0402 9.1875 17.8571V12.1429C9.1875 10.9598 8.30566 10 7.21875 10Z" fill="#5474FD"/>
</svg>
